<mxfile host="app.diagrams.net" modified="2023-07-29T07:08:42.654Z" agent="Mozilla/5.0 (Windows NT 10.0; Win64; x64) AppleWebKit/537.36 (KHTML, like Gecko) Chrome/115.0.0.0 Safari/537.36" etag="fZp-P4D2u5chPi2HXwpo" version="21.6.6" type="github">
  <diagram name="第 1 页" id="BTsdWNPQqWcm-0YrjVG-">
    <mxGraphModel dx="880" dy="446" grid="1" gridSize="10" guides="1" tooltips="1" connect="1" arrows="1" fold="1" page="1" pageScale="1" pageWidth="827" pageHeight="1169" math="0" shadow="0">
      <root>
        <mxCell id="0" />
        <mxCell id="1" parent="0" />
        <mxCell id="EJvOCMn2fVkZCT1Ls7Yq-1" value="" style="shape=table;startSize=0;container=1;collapsible=0;childLayout=tableLayout;fontSize=18;" vertex="1" parent="1">
          <mxGeometry x="290" y="160" width="250" height="270" as="geometry" />
        </mxCell>
        <mxCell id="EJvOCMn2fVkZCT1Ls7Yq-2" value="" style="shape=tableRow;horizontal=0;startSize=0;swimlaneHead=0;swimlaneBody=0;strokeColor=inherit;top=0;left=0;bottom=0;right=0;collapsible=0;dropTarget=0;fillColor=none;points=[[0,0.5],[1,0.5]];portConstraint=eastwest;fontSize=18;" vertex="1" parent="EJvOCMn2fVkZCT1Ls7Yq-1">
          <mxGeometry width="250" height="55" as="geometry" />
        </mxCell>
        <mxCell id="EJvOCMn2fVkZCT1Ls7Yq-3" value="页编号" style="shape=partialRectangle;html=1;whiteSpace=wrap;connectable=0;strokeColor=#82b366;overflow=hidden;fillColor=#d5e8d4;top=0;left=0;bottom=0;right=0;pointerEvents=1;fontSize=18;" vertex="1" parent="EJvOCMn2fVkZCT1Ls7Yq-2">
          <mxGeometry width="120" height="55" as="geometry">
            <mxRectangle width="120" height="55" as="alternateBounds" />
          </mxGeometry>
        </mxCell>
        <mxCell id="EJvOCMn2fVkZCT1Ls7Yq-4" value="物理页编号" style="shape=partialRectangle;html=1;whiteSpace=wrap;connectable=0;strokeColor=#82b366;overflow=hidden;fillColor=#d5e8d4;top=0;left=0;bottom=0;right=0;pointerEvents=1;fontSize=18;" vertex="1" parent="EJvOCMn2fVkZCT1Ls7Yq-2">
          <mxGeometry x="120" width="130" height="55" as="geometry">
            <mxRectangle width="130" height="55" as="alternateBounds" />
          </mxGeometry>
        </mxCell>
        <mxCell id="EJvOCMn2fVkZCT1Ls7Yq-6" value="" style="shape=tableRow;horizontal=0;startSize=0;swimlaneHead=0;swimlaneBody=0;strokeColor=inherit;top=0;left=0;bottom=0;right=0;collapsible=0;dropTarget=0;fillColor=none;points=[[0,0.5],[1,0.5]];portConstraint=eastwest;fontSize=18;" vertex="1" parent="EJvOCMn2fVkZCT1Ls7Yq-1">
          <mxGeometry y="55" width="250" height="54" as="geometry" />
        </mxCell>
        <mxCell id="EJvOCMn2fVkZCT1Ls7Yq-7" value="0" style="shape=partialRectangle;html=1;whiteSpace=wrap;connectable=0;strokeColor=inherit;overflow=hidden;fillColor=none;top=0;left=0;bottom=0;right=0;pointerEvents=1;fontSize=18;" vertex="1" parent="EJvOCMn2fVkZCT1Ls7Yq-6">
          <mxGeometry width="120" height="54" as="geometry">
            <mxRectangle width="120" height="54" as="alternateBounds" />
          </mxGeometry>
        </mxCell>
        <mxCell id="EJvOCMn2fVkZCT1Ls7Yq-8" value="2000" style="shape=partialRectangle;html=1;whiteSpace=wrap;connectable=0;strokeColor=inherit;overflow=hidden;fillColor=none;top=0;left=0;bottom=0;right=0;pointerEvents=1;fontSize=18;" vertex="1" parent="EJvOCMn2fVkZCT1Ls7Yq-6">
          <mxGeometry x="120" width="130" height="54" as="geometry">
            <mxRectangle width="130" height="54" as="alternateBounds" />
          </mxGeometry>
        </mxCell>
        <mxCell id="EJvOCMn2fVkZCT1Ls7Yq-10" value="" style="shape=tableRow;horizontal=0;startSize=0;swimlaneHead=0;swimlaneBody=0;strokeColor=inherit;top=0;left=0;bottom=0;right=0;collapsible=0;dropTarget=0;fillColor=none;points=[[0,0.5],[1,0.5]];portConstraint=eastwest;fontSize=18;" vertex="1" parent="EJvOCMn2fVkZCT1Ls7Yq-1">
          <mxGeometry y="109" width="250" height="55" as="geometry" />
        </mxCell>
        <mxCell id="EJvOCMn2fVkZCT1Ls7Yq-11" value="1" style="shape=partialRectangle;html=1;whiteSpace=wrap;connectable=0;strokeColor=inherit;overflow=hidden;fillColor=none;top=0;left=0;bottom=0;right=0;pointerEvents=1;fontSize=18;" vertex="1" parent="EJvOCMn2fVkZCT1Ls7Yq-10">
          <mxGeometry width="120" height="55" as="geometry">
            <mxRectangle width="120" height="55" as="alternateBounds" />
          </mxGeometry>
        </mxCell>
        <mxCell id="EJvOCMn2fVkZCT1Ls7Yq-12" value="4000" style="shape=partialRectangle;html=1;whiteSpace=wrap;connectable=0;strokeColor=inherit;overflow=hidden;fillColor=none;top=0;left=0;bottom=0;right=0;pointerEvents=1;fontSize=18;" vertex="1" parent="EJvOCMn2fVkZCT1Ls7Yq-10">
          <mxGeometry x="120" width="130" height="55" as="geometry">
            <mxRectangle width="130" height="55" as="alternateBounds" />
          </mxGeometry>
        </mxCell>
        <mxCell id="EJvOCMn2fVkZCT1Ls7Yq-14" style="shape=tableRow;horizontal=0;startSize=0;swimlaneHead=0;swimlaneBody=0;strokeColor=inherit;top=0;left=0;bottom=0;right=0;collapsible=0;dropTarget=0;fillColor=none;points=[[0,0.5],[1,0.5]];portConstraint=eastwest;fontSize=18;" vertex="1" parent="EJvOCMn2fVkZCT1Ls7Yq-1">
          <mxGeometry y="164" width="250" height="55" as="geometry" />
        </mxCell>
        <mxCell id="EJvOCMn2fVkZCT1Ls7Yq-15" value="2" style="shape=partialRectangle;html=1;whiteSpace=wrap;connectable=0;strokeColor=inherit;overflow=hidden;fillColor=none;top=0;left=0;bottom=0;right=0;pointerEvents=1;fontSize=18;" vertex="1" parent="EJvOCMn2fVkZCT1Ls7Yq-14">
          <mxGeometry width="120" height="55" as="geometry">
            <mxRectangle width="120" height="55" as="alternateBounds" />
          </mxGeometry>
        </mxCell>
        <mxCell id="EJvOCMn2fVkZCT1Ls7Yq-16" value="1000" style="shape=partialRectangle;html=1;whiteSpace=wrap;connectable=0;strokeColor=inherit;overflow=hidden;fillColor=none;top=0;left=0;bottom=0;right=0;pointerEvents=1;fontSize=18;" vertex="1" parent="EJvOCMn2fVkZCT1Ls7Yq-14">
          <mxGeometry x="120" width="130" height="55" as="geometry">
            <mxRectangle width="130" height="55" as="alternateBounds" />
          </mxGeometry>
        </mxCell>
        <mxCell id="EJvOCMn2fVkZCT1Ls7Yq-18" style="shape=tableRow;horizontal=0;startSize=0;swimlaneHead=0;swimlaneBody=0;strokeColor=inherit;top=0;left=0;bottom=0;right=0;collapsible=0;dropTarget=0;fillColor=none;points=[[0,0.5],[1,0.5]];portConstraint=eastwest;fontSize=18;" vertex="1" parent="EJvOCMn2fVkZCT1Ls7Yq-1">
          <mxGeometry y="219" width="250" height="51" as="geometry" />
        </mxCell>
        <mxCell id="EJvOCMn2fVkZCT1Ls7Yq-19" value="3" style="shape=partialRectangle;html=1;whiteSpace=wrap;connectable=0;strokeColor=inherit;overflow=hidden;fillColor=none;top=0;left=0;bottom=0;right=0;pointerEvents=1;fontSize=18;" vertex="1" parent="EJvOCMn2fVkZCT1Ls7Yq-18">
          <mxGeometry width="120" height="51" as="geometry">
            <mxRectangle width="120" height="51" as="alternateBounds" />
          </mxGeometry>
        </mxCell>
        <mxCell id="EJvOCMn2fVkZCT1Ls7Yq-20" value="6000" style="shape=partialRectangle;html=1;whiteSpace=wrap;connectable=0;strokeColor=inherit;overflow=hidden;fillColor=none;top=0;left=0;bottom=0;right=0;pointerEvents=1;fontSize=18;" vertex="1" parent="EJvOCMn2fVkZCT1Ls7Yq-18">
          <mxGeometry x="120" width="130" height="51" as="geometry">
            <mxRectangle width="130" height="51" as="alternateBounds" />
          </mxGeometry>
        </mxCell>
        <mxCell id="EJvOCMn2fVkZCT1Ls7Yq-22" value="" style="shape=table;startSize=0;container=1;collapsible=0;childLayout=tableLayout;fontSize=18;" vertex="1" parent="1">
          <mxGeometry x="30" y="260" width="190" height="40" as="geometry" />
        </mxCell>
        <mxCell id="EJvOCMn2fVkZCT1Ls7Yq-23" value="" style="shape=tableRow;horizontal=0;startSize=0;swimlaneHead=0;swimlaneBody=0;strokeColor=inherit;top=0;left=0;bottom=0;right=0;collapsible=0;dropTarget=0;fillColor=none;points=[[0,0.5],[1,0.5]];portConstraint=eastwest;fontSize=18;" vertex="1" parent="EJvOCMn2fVkZCT1Ls7Yq-22">
          <mxGeometry width="190" height="40" as="geometry" />
        </mxCell>
        <mxCell id="EJvOCMn2fVkZCT1Ls7Yq-24" value="页编号 2" style="shape=partialRectangle;html=1;whiteSpace=wrap;connectable=0;strokeColor=inherit;overflow=hidden;fillColor=none;top=0;left=0;bottom=0;right=0;pointerEvents=1;fontSize=18;" vertex="1" parent="EJvOCMn2fVkZCT1Ls7Yq-23">
          <mxGeometry width="95" height="40" as="geometry">
            <mxRectangle width="95" height="40" as="alternateBounds" />
          </mxGeometry>
        </mxCell>
        <mxCell id="EJvOCMn2fVkZCT1Ls7Yq-25" value="页偏移 400" style="shape=partialRectangle;html=1;whiteSpace=wrap;connectable=0;strokeColor=inherit;overflow=hidden;fillColor=none;top=0;left=0;bottom=0;right=0;pointerEvents=1;fontSize=18;" vertex="1" parent="EJvOCMn2fVkZCT1Ls7Yq-23">
          <mxGeometry x="95" width="95" height="40" as="geometry">
            <mxRectangle width="95" height="40" as="alternateBounds" />
          </mxGeometry>
        </mxCell>
        <mxCell id="EJvOCMn2fVkZCT1Ls7Yq-26" value="虚拟地址A" style="text;html=1;strokeColor=none;fillColor=none;align=center;verticalAlign=middle;whiteSpace=wrap;rounded=0;fontSize=18;fontStyle=1" vertex="1" parent="1">
          <mxGeometry x="60" y="227" width="130" height="30" as="geometry" />
        </mxCell>
        <mxCell id="EJvOCMn2fVkZCT1Ls7Yq-27" value="页表" style="text;html=1;strokeColor=none;fillColor=none;align=center;verticalAlign=middle;whiteSpace=wrap;rounded=0;fontSize=18;fontStyle=1" vertex="1" parent="1">
          <mxGeometry x="360" y="130" width="60" height="30" as="geometry" />
        </mxCell>
        <mxCell id="EJvOCMn2fVkZCT1Ls7Yq-28" value="" style="rounded=0;whiteSpace=wrap;html=1;fillColor=#f5f5f5;fontColor=#333333;strokeColor=#666666;fontSize=18;" vertex="1" parent="1">
          <mxGeometry x="796" y="90" width="160" height="410" as="geometry" />
        </mxCell>
        <mxCell id="EJvOCMn2fVkZCT1Ls7Yq-29" value="段号2" style="rounded=0;whiteSpace=wrap;html=1;fillColor=#fff2cc;strokeColor=#d6b656;fontSize=18;" vertex="1" parent="1">
          <mxGeometry x="796" y="436" width="160" height="40" as="geometry" />
        </mxCell>
        <mxCell id="EJvOCMn2fVkZCT1Ls7Yq-30" value="1000" style="text;html=1;strokeColor=none;fillColor=none;align=center;verticalAlign=middle;whiteSpace=wrap;rounded=0;fontSize=18;" vertex="1" parent="1">
          <mxGeometry x="741" y="463" width="60" height="30" as="geometry" />
        </mxCell>
        <mxCell id="EJvOCMn2fVkZCT1Ls7Yq-31" value="1500" style="text;html=1;strokeColor=none;fillColor=none;align=center;verticalAlign=middle;whiteSpace=wrap;rounded=0;fontSize=18;" vertex="1" parent="1">
          <mxGeometry x="739" y="425" width="60" height="30" as="geometry" />
        </mxCell>
        <mxCell id="EJvOCMn2fVkZCT1Ls7Yq-32" value="段号0" style="rounded=0;whiteSpace=wrap;html=1;fillColor=#dae8fc;strokeColor=#6c8ebf;fontSize=18;" vertex="1" parent="1">
          <mxGeometry x="796" y="363" width="160" height="40" as="geometry" />
        </mxCell>
        <mxCell id="EJvOCMn2fVkZCT1Ls7Yq-33" value="段号1" style="rounded=0;whiteSpace=wrap;html=1;fillColor=#d5e8d4;strokeColor=#82b366;fontSize=18;" vertex="1" parent="1">
          <mxGeometry x="796" y="257" width="160" height="60" as="geometry" />
        </mxCell>
        <mxCell id="EJvOCMn2fVkZCT1Ls7Yq-34" value="段号3" style="rounded=0;whiteSpace=wrap;html=1;fillColor=#e1d5e7;strokeColor=#9673a6;fontSize=18;" vertex="1" parent="1">
          <mxGeometry x="796" y="130" width="160" height="90" as="geometry" />
        </mxCell>
        <mxCell id="EJvOCMn2fVkZCT1Ls7Yq-35" value="2000" style="text;html=1;strokeColor=none;fillColor=none;align=center;verticalAlign=middle;whiteSpace=wrap;rounded=0;fontSize=18;" vertex="1" parent="1">
          <mxGeometry x="741" y="385" width="60" height="30" as="geometry" />
        </mxCell>
        <mxCell id="EJvOCMn2fVkZCT1Ls7Yq-36" value="2400" style="text;html=1;strokeColor=none;fillColor=none;align=center;verticalAlign=middle;whiteSpace=wrap;rounded=0;fontSize=18;" vertex="1" parent="1">
          <mxGeometry x="740" y="353" width="60" height="30" as="geometry" />
        </mxCell>
        <mxCell id="EJvOCMn2fVkZCT1Ls7Yq-37" value="4000" style="text;html=1;strokeColor=none;fillColor=none;align=center;verticalAlign=middle;whiteSpace=wrap;rounded=0;fontSize=18;" vertex="1" parent="1">
          <mxGeometry x="739" y="303" width="60" height="30" as="geometry" />
        </mxCell>
        <mxCell id="EJvOCMn2fVkZCT1Ls7Yq-38" value="5000" style="text;html=1;strokeColor=none;fillColor=none;align=center;verticalAlign=middle;whiteSpace=wrap;rounded=0;fontSize=18;" vertex="1" parent="1">
          <mxGeometry x="738" y="245" width="60" height="30" as="geometry" />
        </mxCell>
        <mxCell id="EJvOCMn2fVkZCT1Ls7Yq-39" value="6000" style="text;html=1;strokeColor=none;fillColor=none;align=center;verticalAlign=middle;whiteSpace=wrap;rounded=0;fontStyle=0;fontSize=18;" vertex="1" parent="1">
          <mxGeometry x="738" y="205" width="60" height="30" as="geometry" />
        </mxCell>
        <mxCell id="EJvOCMn2fVkZCT1Ls7Yq-40" value="8000" style="text;html=1;strokeColor=none;fillColor=none;align=center;verticalAlign=middle;whiteSpace=wrap;rounded=0;fontSize=18;" vertex="1" parent="1">
          <mxGeometry x="740" y="118" width="60" height="30" as="geometry" />
        </mxCell>
        <mxCell id="EJvOCMn2fVkZCT1Ls7Yq-41" value="" style="endArrow=classic;html=1;rounded=0;edgeStyle=orthogonalEdgeStyle;entryX=0;entryY=0.5;entryDx=0;entryDy=0;exitX=0.263;exitY=1;exitDx=0;exitDy=0;exitPerimeter=0;" edge="1" parent="1" source="EJvOCMn2fVkZCT1Ls7Yq-23" target="EJvOCMn2fVkZCT1Ls7Yq-14">
          <mxGeometry width="50" height="50" relative="1" as="geometry">
            <mxPoint x="90" y="310" as="sourcePoint" />
            <mxPoint x="480" y="260" as="targetPoint" />
          </mxGeometry>
        </mxCell>
        <mxCell id="EJvOCMn2fVkZCT1Ls7Yq-42" value="" style="endArrow=classic;html=1;rounded=0;exitX=1;exitY=0.5;exitDx=0;exitDy=0;edgeStyle=orthogonalEdgeStyle;entryX=0.9;entryY=-0.133;entryDx=0;entryDy=0;entryPerimeter=0;" edge="1" parent="1" source="EJvOCMn2fVkZCT1Ls7Yq-14" target="EJvOCMn2fVkZCT1Ls7Yq-30">
          <mxGeometry width="50" height="50" relative="1" as="geometry">
            <mxPoint x="150" y="490" as="sourcePoint" />
            <mxPoint x="200" y="440" as="targetPoint" />
            <Array as="points">
              <mxPoint x="690" y="352" />
              <mxPoint x="690" y="459" />
            </Array>
          </mxGeometry>
        </mxCell>
        <mxCell id="EJvOCMn2fVkZCT1Ls7Yq-43" value="" style="endArrow=none;html=1;rounded=0;entryX=1;entryY=0.25;entryDx=0;entryDy=0;dashed=1;" edge="1" parent="1" target="EJvOCMn2fVkZCT1Ls7Yq-29">
          <mxGeometry width="50" height="50" relative="1" as="geometry">
            <mxPoint x="797" y="446" as="sourcePoint" />
            <mxPoint x="350" y="480" as="targetPoint" />
          </mxGeometry>
        </mxCell>
        <mxCell id="EJvOCMn2fVkZCT1Ls7Yq-44" value="1400" style="text;html=1;strokeColor=#b85450;fillColor=#f8cecc;align=center;verticalAlign=middle;whiteSpace=wrap;rounded=0;fontSize=18;" vertex="1" parent="1">
          <mxGeometry x="961" y="438" width="50" height="20" as="geometry" />
        </mxCell>
        <mxCell id="EJvOCMn2fVkZCT1Ls7Yq-45" value="物理空间" style="text;html=1;strokeColor=none;fillColor=none;align=center;verticalAlign=middle;whiteSpace=wrap;rounded=0;fontSize=18;fontStyle=1" vertex="1" parent="1">
          <mxGeometry x="827" y="60" width="93" height="30" as="geometry" />
        </mxCell>
      </root>
    </mxGraphModel>
  </diagram>
</mxfile>
